# xmcd
#
# Track frame offsets:
#	150
#	14127
#	29739
#	40233
#	52031
#	64918
#	78318
#	94950
#	106808
#	119529
#	132441
#	144941
#	152829
#	166170
#	176986
#	190330
#	206047
#	222202
#	238811
#	250931
#	264654
#	279365
#	288014
#	293728
#	297259
#
# Disc length: 4145 seconds
#
# Revision: 2
# Processed by: cddbd v1.5.1PL0 Copyright (c) Steve Scherf et al.
# Submitted via: EasyCDDAExtractor 7.5.0.1
#
DISCID=89102f19
DTITLE=Various Artist - Kentucky Mountain Music (Classic Recordings Of The 19
DTITLE=20s and 30s) - Disc 5
DYEAR=2003
DGENRE=Bluegrass
TTITLE0=Crockett Family Mountaineers - Buffalo Gals (Medley)
TTITLE1=Howard and Peak - Three Black Sheep
TTITLE2=Clifford Gross - Run Them Coons In The Ground
TTITLE3=Green Bailey - I Wish I Was A Mole In The Ground
TTITLE4=Ted Gossett's Band - Fire On The Mountain
TTITLE5=Oaks Family - Wake Up You Drowsy Sleepers
TTITLE6=Charlie Wilson and His Hillbillies - Cuttin At The Point
TTITLE7=Buell Kazee - The Cowboy Trail
TTITLE8=Jimmy Johnson's String Band - Drink More Cider
TTITLE9=Rutherford and Foster - Two Faithful Lovers
TTITLE10=Taylor's Kentucky Boys - Maxwell Girl
TTITLE11=Daw Henson - Swafford Branch Stills
TTITLE12=Lonesome Luke and His Farm Boys - Wild Hog In The Woods
TTITLE13=Marvin Thornton and Fort Thomas Group - The Soldier And The Lady
TTITLE14=Kentucky Woodchoppers - Pine Tree
TTITLE15=Green Maggard - Lord Daniel
TTITLE16=Kentucky String Ticklers - Leaving Here Blues
TTITLE17=James Howard - The Peddler And His Wife
TTITLE18=Doc Roberts - Waynesburgh
TTITLE19=Burnett and Rutherford - Little Stream Of Whiskey
TTITLE20=Madisonville String Band - Next To Your Mother, Who Do You Love
TTITLE21=Pete Steele - Little Birdie
TTITLE22=Theophilus Hoskins - Hog Eyed Man
TTITLE23=Walter Williams - (Fragment)
TTITLE24=McVay and Johnson - I'll Be Ready When the Bridegroom Comes
EXTD=
EXTT0=
EXTT1=
EXTT2=
EXTT3=
EXTT4=
EXTT5=
EXTT6=
EXTT7=
EXTT8=
EXTT9=
EXTT10=
EXTT11=
EXTT12=
EXTT13=
EXTT14=
EXTT15=
EXTT16=
EXTT17=
EXTT18=
EXTT19=
EXTT20=
EXTT21=
EXTT22=
EXTT23=
EXTT24=
PLAYORDER=
